<svg width="163" height="55" viewBox="0 0 163 55" fill="none" xmlns="http://www.w3.org/2000/svg">
<path d="M46.2169 18.8984C46.2169 22.3264 46.2169 44.4941 46.2169 47.171H39.971C39.971 4.15929 39.971 29.4847 39.971 14.0941L23.0547 1L23.0319 4.81794C23.0319 9.7961 23.0319 42.7526 23.0319 47.171H15.4469C15.4469 32.2006 15.4469 25.5144 15.4469 10.4524L0 22.5792V52H4.96317C4.96317 52 4.93546 48.1486 4.93546 24.9243L10.5131 20.6335C10.5131 57.8449 10.5131 44.695 10.5131 52H28.0195C28.0195 33.4445 28.0195 27.4537 28.0195 11.0018L34.7283 15.9727C34.7283 25.1285 34.7283 42.936 34.7283 52H51V22.5792L46.2169 18.8984Z" fill="#AC8D68"/>
<path d="M69.71 52V45H72.12C72.6733 45 73.1267 45.0933 73.48 45.28C73.84 45.4667 74.1067 45.72 74.28 46.04C74.4533 46.3533 74.54 46.7033 74.54 47.09C74.54 47.5233 74.4233 47.9167 74.19 48.27C73.9633 48.6233 73.6067 48.8767 73.12 49.03L74.61 52H73.38L72.02 49.18H70.77V52H69.71ZM70.77 48.38H72.06C72.54 48.38 72.89 48.2633 73.11 48.03C73.3367 47.7967 73.45 47.4933 73.45 47.12C73.45 46.7467 73.34 46.45 73.12 46.23C72.9 46.0033 72.5433 45.89 72.05 45.89H70.77V48.38ZM79.094 52V45H83.544V45.86H80.154V48.04H83.244V48.88H80.154V51.14H83.544V52H79.094ZM87.6569 52L90.2369 45H91.3969L93.9569 52H92.8369L92.2369 50.29H89.3769L88.7769 52H87.6569ZM89.6769 49.45H91.9369L90.8069 46.26L89.6769 49.45ZM98.233 52V45H99.293V51.16H102.473V52H98.233ZM112.733 52V45H117.183V45.86H113.793V48.04H116.883V48.88H113.793V51.14H117.183V52H112.733ZM124.056 52.12C123.543 52.12 123.093 52.03 122.706 51.85C122.32 51.67 122.016 51.4133 121.796 51.08C121.583 50.7467 121.473 50.35 121.466 49.89H122.586C122.593 50.2633 122.723 50.58 122.976 50.84C123.23 51.1 123.586 51.23 124.046 51.23C124.453 51.23 124.77 51.1333 124.996 50.94C125.23 50.74 125.346 50.4867 125.346 50.18C125.346 49.9333 125.29 49.7333 125.176 49.58C125.07 49.4267 124.92 49.3 124.726 49.2C124.54 49.1 124.323 49.01 124.076 48.93C123.83 48.85 123.57 48.7633 123.296 48.67C122.756 48.49 122.35 48.2567 122.076 47.97C121.81 47.6833 121.676 47.3067 121.676 46.84C121.67 46.4467 121.76 46.1033 121.946 45.81C122.14 45.5167 122.406 45.29 122.746 45.13C123.093 44.9633 123.496 44.88 123.956 44.88C124.41 44.88 124.806 44.9633 125.146 45.13C125.493 45.2967 125.763 45.53 125.956 45.83C126.15 46.1233 126.25 46.4667 126.256 46.86H125.136C125.136 46.68 125.09 46.51 124.996 46.35C124.903 46.1833 124.766 46.0467 124.586 45.94C124.406 45.8333 124.186 45.78 123.926 45.78C123.593 45.7733 123.316 45.8567 123.096 46.03C122.883 46.2033 122.776 46.4433 122.776 46.75C122.776 47.0233 122.856 47.2333 123.016 47.38C123.176 47.5267 123.396 47.65 123.676 47.75C123.956 47.8433 124.276 47.9533 124.636 48.08C124.983 48.1933 125.293 48.33 125.566 48.49C125.84 48.65 126.056 48.86 126.216 49.12C126.383 49.38 126.466 49.71 126.466 50.11C126.466 50.4633 126.376 50.7933 126.196 51.1C126.016 51.4 125.746 51.6467 125.386 51.84C125.026 52.0267 124.583 52.12 124.056 52.12ZM132.438 52V45.86H130.368V45H135.558V45.86H133.498V52H132.438ZM138.639 52L141.219 45H142.379L144.939 52H143.819L143.219 50.29H140.359L139.759 52H138.639ZM140.659 49.45H142.919L141.789 46.26L140.659 49.45ZM150.093 52V45.86H148.023V45H153.213V45.86H151.153V52H150.093ZM157.505 52V45H161.955V45.86H158.565V48.04H161.655V48.88H158.565V51.14H161.955V52H157.505Z" fill="#0D1230"/>
<path d="M68.8945 34V33.209L71.0215 33.0332L79.3359 8.19531H80.127L88.7227 33.0332L91.043 33.209V34H81.6387V33.209L84.0117 33.0332L81.9375 26.7227H74.0625L72.0234 33.0332L74.3965 33.209V34H68.8945ZM74.3789 25.668L81.5508 25.5273L78.0352 14.7344H77.9648L74.3789 25.668ZM88.4766 17.0723V16.3516H96.791V17.0723L94.8926 17.2656L99.041 28.3398H99.1113L102.908 17.2656L100.975 17.0723V16.3516H105.791V17.0723L103.963 17.2656L98.0742 34.1758H97.2656L90.2168 17.2656L88.4766 17.0723ZM106.617 30.1855C106.617 29.6113 106.705 29.0605 106.881 28.5332C107.068 27.9941 107.367 27.4785 107.777 26.9863C108.188 26.4941 108.691 26.0664 109.289 25.7031C109.887 25.3398 110.625 25.0527 111.504 24.8418C112.395 24.6191 113.379 24.5078 114.457 24.5078C115.031 24.5078 115.576 24.5312 116.092 24.5781V22.1523C116.092 21.3789 116.074 20.752 116.039 20.2715C116.016 19.791 115.945 19.2988 115.828 18.7949C115.711 18.2793 115.541 17.8867 115.318 17.6172C115.107 17.3359 114.803 17.1074 114.404 16.9316C114.018 16.7441 113.543 16.6504 112.98 16.6504C111.27 16.6504 110.021 17.3242 109.236 18.6719V18.7422C109.436 18.707 109.617 18.6895 109.781 18.6895C110.391 18.6895 110.871 18.877 111.223 19.252C111.574 19.627 111.75 20.166 111.75 20.8691C111.75 21.4785 111.539 21.9941 111.117 22.416C110.695 22.8262 110.168 23.0312 109.535 23.0312C108.844 23.0312 108.299 22.7969 107.9 22.3281C107.502 21.8594 107.303 21.3086 107.303 20.6758C107.303 19.293 107.936 18.1387 109.201 17.2129C110.479 16.2871 111.943 15.8242 113.596 15.8242C114.768 15.8242 115.764 15.9473 116.584 16.1934C117.416 16.4395 118.078 16.7676 118.57 17.1777C119.062 17.5762 119.443 18.127 119.713 18.8301C119.994 19.5215 120.176 20.2305 120.258 20.957C120.352 21.6836 120.398 22.5742 120.398 23.6289V33.1035L122.209 33.2793V34H116.619L116.127 31.2227H116.092C115.518 32.3359 114.82 33.168 114 33.7188C113.191 34.2578 112.207 34.5273 111.047 34.5273C109.617 34.5273 108.521 34.0996 107.76 33.2441C106.998 32.3887 106.617 31.3691 106.617 30.1855ZM110.871 29.8164C110.871 30.7539 111.047 31.5156 111.398 32.1016C111.75 32.6758 112.266 32.9629 112.945 32.9629C113.742 32.9629 114.463 32.4648 115.107 31.4688C115.764 30.4727 116.092 29.2539 116.092 27.8125V25.3867C115.623 25.3281 115.242 25.2988 114.949 25.2988C114.34 25.2988 113.795 25.3809 113.314 25.5449C112.846 25.709 112.471 25.9316 112.189 26.2129C111.908 26.4941 111.674 26.793 111.486 27.1094C111.299 27.4141 111.164 27.7539 111.082 28.1289C111 28.5039 110.941 28.8145 110.906 29.0605C110.883 29.3066 110.871 29.5586 110.871 29.8164ZM124.477 25.6152C124.477 24.5957 124.57 23.6172 124.758 22.6797C124.945 21.7422 125.244 20.8574 125.654 20.0254C126.064 19.1816 126.568 18.4551 127.166 17.8457C127.764 17.2246 128.496 16.7324 129.363 16.3691C130.242 16.0059 131.209 15.8242 132.264 15.8242C132.709 15.8242 133.23 15.9004 133.828 16.0527C134.438 16.1934 134.924 16.416 135.287 16.7207V10.3047H133.125V9.58398L136.799 9.19727L139.277 8.54688L139.611 9.05664V33.1035L141.404 33.2793V34H135.533L135.305 31.5039H135.27C134.59 32.6641 133.881 33.4609 133.143 33.8945C132.404 34.3164 131.52 34.5273 130.488 34.5273C130.219 34.5273 129.932 34.498 129.627 34.4395C129.322 34.3809 128.971 34.2637 128.572 34.0879C128.174 33.9238 127.787 33.7129 127.412 33.4551C127.049 33.1855 126.686 32.8164 126.322 32.3477C125.959 31.8789 125.643 31.3457 125.373 30.748C125.104 30.1504 124.887 29.4121 124.723 28.5332C124.559 27.6426 124.477 26.6699 124.477 25.6152ZM128.977 25.4395C128.977 30.5137 130.025 33.0508 132.123 33.0508C132.955 33.0508 133.688 32.5527 134.32 31.5566C134.965 30.5605 135.287 29.4941 135.287 28.3574V17.582C134.619 17.0781 133.875 16.8262 133.055 16.8262C132.516 16.8262 132.029 16.9375 131.596 17.1602C131.174 17.3828 130.822 17.6641 130.541 18.0039C130.26 18.3438 130.02 18.7773 129.82 19.3047C129.621 19.8203 129.469 20.3184 129.363 20.7988C129.258 21.2793 129.17 21.8301 129.1 22.4512C129.041 23.0723 129.006 23.5938 128.994 24.0156C128.982 24.4375 128.977 24.9121 128.977 25.4395ZM143.197 10.3047V9.58398L146.871 9.19727L149.35 8.54688L149.596 9.05664V18.8828H149.666C151.061 16.8438 152.865 15.8242 155.08 15.8242C155.502 15.8242 155.906 15.8594 156.293 15.9297C156.68 16 157.107 16.1582 157.576 16.4043C158.045 16.6504 158.449 16.9727 158.789 17.3711C159.129 17.7695 159.416 18.3379 159.65 19.0762C159.885 19.8145 160.002 20.6758 160.002 21.6602V33.1035L161.795 33.2793V34H153.885V33.2793L155.678 33.1035V21.1504C155.678 18.6543 154.875 17.4062 153.27 17.4062C152.215 17.4062 151.348 17.8867 150.668 18.8477C150 19.8086 149.666 21.0684 149.666 22.627V33.1035L151.477 33.2793V34H143.549V33.2793L145.359 33.1035V10.3047H143.197Z" fill="#0D1230"/>
</svg>
